<svg height="511pt" viewBox="0 -10 511.99946 511" width="511pt" xmlns="http://www.w3.org/2000/svg"><path d="m138.003906 439.59375c-4.5 0-8.183594-3.675781-8.183594-8.160156v-40.738282c0-4.488281 3.683594-8.160156 8.183594-8.160156h97.695313v-39.449218c-36.761719-4.238282-69.914063-25.757813-88.59375-58.300782-.9375-1.621094-.9375-3.621094 0-5.246094 18.679687-32.542968 51.832031-54.0625 88.59375-58.300781v-101.320312c0-2.75-2.25-5-5-5h-218.199219c-2.75 0-5 2.25-5 5v358.476562c0 2.75 2.25 5 5 5h218.199219c2.75 0 5-2.25 5-5v-38.800781zm0 0" fill="#e6e9ed"/><path d="m147.105469 284.785156c-.933594-1.625-.933594-3.621094 0-5.246094 13.261719-23.105468 33.820312-40.648437 57.78125-50.40625v-17.195312c0-2.75-2.25-5-5-5h-156.574219c-2.75 0-5 2.25-5 5v104.480469c0 2.75 2.25 5 5 5h136.769531c-13.257812-9.609375-24.582031-22.007813-32.976562-36.632813zm0 0" fill="#fb8276"/><path d="m249.058594 343.871094c-41.964844 0-81.03125-22.640625-101.953125-59.085938-.9375-1.625-.9375-3.621094 0-5.246094 20.921875-36.449218 59.988281-59.085937 101.953125-59.085937 41.96875 0 81.035156 22.636719 101.960937 59.085937.933594 1.625.933594 3.621094 0 5.246094-20.925781 36.445313-59.992187 59.085938-101.960937 59.085938zm0 0" fill="#c7fffd"/><path d="m286.011719 282.160156c0-20.421875-16.542969-36.980468-36.949219-36.980468s-36.949219 16.558593-36.949219 36.980468 16.542969 36.980469 36.949219 36.980469 36.949219-16.558594 36.949219-36.980469zm0 0" fill="#046699"/><path d="m249.058594 245.179688c-3.792969 0-7.453125.578124-10.902344 1.640624-.183594 1.492188-.289062 3.011719-.289062 4.554688 0 20.425781 16.542968 36.980469 36.949218 36.980469 3.796875 0 7.457032-.574219 10.902344-1.640625.1875-1.492188.289062-3.011719.289062-4.554688.003907-20.425781-16.542968-36.980468-36.949218-36.980468zm0 0" fill="#fff"/><path d="m397.40625 44.617188c-38.421875 0-69.675781 31.167968-69.675781 69.480468 0 12.246094 3.234375 24.28125 9.359375 34.808594 5.945312 10.21875 14.464844 18.824219 24.640625 24.886719l3.140625 1.871093v16.972657h65.070312v-16.972657l3.140625-1.871093c10.175781-6.0625 18.695313-14.667969 24.644531-24.886719 6.121094-10.527344 9.355469-22.5625 9.355469-34.808594 0-38.3125-31.257812-69.480468-69.675781-69.480468zm0 0" fill="#ffc502"/><path d="m397.019531 105.171875c-7.382812 0-13.421875 6.042969-13.421875 13.433594v16.378906c0 7.390625 6.039063 13.433594 13.421875 13.433594h.777344c7.378906 0 13.421875-6.042969 13.421875-13.433594v-16.378906c0-7.390625-6.042969-13.433594-13.421875-13.433594zm0 0" fill="#fff"/><path d="m381.25 235.886719v18.042969c0 3.050781 2.496094 5.546874 5.546875 5.546874h21.222656c3.050781 0 5.542969-2.496093 5.542969-5.546874v-18.042969zm0 0" fill="#9ea7af"/><path d="m436.6875 231.40625c0 2.464844-2.011719 4.480469-4.472656 4.480469h-69.613282c-2.460937 0-4.476562-2.015625-4.476562-4.480469v-34.289062c0-2.464844 2.015625-4.480469 4.476562-4.480469h69.613282c2.460937 0 4.472656 2.015625 4.472656 4.480469zm0 0" fill="#c6a07d"/><path d="m138.003906 439.59375c-4.5 0-8.183594-3.675781-8.183594-8.160156v-40.738282c0-4.488281 3.683594-8.160156 8.183594-8.160156h235.636719c4.5 0 11.414063 1.761719 15.363281 3.914063l37.972656 20.699219c3.949219 2.15625 3.949219 5.675781 0 7.828124l-37.972656 20.699219c-3.949218 2.152344-10.863281 3.917969-15.363281 3.917969zm0 0" fill="#ffc502"/><path d="m370.34375 439.59375h3.296875c4.5 0 11.414063-1.765625 15.363281-3.917969l37.972656-20.699219c3.949219-2.152343 3.949219-5.671874 0-7.828124l-37.972656-20.699219c-3.949218-2.152344-10.863281-3.914063-15.363281-3.914063h-3.296875zm0 0" fill="#ffd5b3"/><path d="m401.453125 428.890625 25.523437-13.914063c3.949219-2.152343 3.949219-5.671874 0-7.828124l-25.523437-13.914063zm0 0" fill="#046699"/><path d="m129.820312 390.695312v40.734376c0 4.488281 3.683594 8.160156 8.183594 8.160156h39.269532v-57.058594h-39.269532c-4.5.003906-8.183594 3.675781-8.183594 8.164062zm0 0" fill="#ef5050"/><path d="m471.519531 92.597656c-1.164062-3.976562-5.320312-6.261718-9.304687-5.097656-3.976563 1.160156-6.257813 5.324219-5.097656 9.300781 1.636718 5.597657 2.464843 11.417969 2.464843 17.300781 0 10.921876-2.882812 21.652344-8.339843 31.03125-5.308594 9.121094-12.914063 16.804688-21.996094 22.21875l-3.140625 1.867188c-2.273438 1.355469-3.664063 3.800781-3.664063 6.445312v9.472657h-17.535156v-30.488281c8.039062-2.921876 13.8125-10.621094 13.8125-19.664063v-16.378906c0-11.542969-9.386719-20.933594-20.921875-20.933594h-.777344c-11.535156 0-20.921875 9.390625-20.921875 20.933594v16.378906c0 9.042969 5.769532 16.742187 13.808594 19.660156v30.492188h-17.53125v-9.472657c0-2.644531-1.394531-5.089843-3.664062-6.445312l-3.140626-1.867188c-9.085937-5.414062-16.691406-13.097656-21.996093-22.21875-5.457031-9.378906-8.34375-20.109374-8.34375-31.03125 0-34.179687 27.890625-61.984374 62.175781-61.984374 16.273438 0 31.675781 6.253906 43.367188 17.613281 2.96875 2.882812 7.71875 2.8125 10.605468-.15625 2.886719-2.96875 2.816406-7.71875-.15625-10.605469-14.503906-14.089844-33.617187-21.851562-53.816406-21.851562-42.554688 0-77.175781 34.535156-77.175781 76.984374 0 13.566407 3.589843 26.90625 10.375 38.574219 6.484375 11.144531 15.730469 20.554688 26.769531 27.25v6.429688c-3.988281 1.949219-6.746094 6.03125-6.746094 10.761719v34.292968c0 6.601563 5.371094 11.976563 11.972656 11.976563h11.152344v10.542969c0 7.195312 5.847656 13.046874 13.042969 13.046874h21.222656c7.191407 0 13.046875-5.851562 13.046875-13.046874v-10.542969h11.148438c6.601562 0 11.976562-5.375 11.976562-11.976563v-34.292968c0-4.730469-2.761718-8.8125-6.75-10.761719v-6.429688c11.039063-6.695312 20.285156-16.105469 26.769532-27.25 6.785156-11.667969 10.375-25.007812 10.375-38.574219-.003907-7.304687-1.035157-14.539062-3.066407-21.503906zm-80.421875 26.007813c0-3.273438 2.65625-5.933594 5.921875-5.933594h.777344c3.265625 0 5.921875 2.660156 5.921875 5.933594v16.378906c0 3.273437-2.65625 5.933594-5.921875 5.933594h-.777344c-3.265625 0-5.921875-2.660157-5.921875-5.933594zm14.964844 133.371093h-17.3125v-8.589843h17.3125zm23.125-23.589843h-63.5625v-28.25h63.5625zm0 0"/><path d="m397.40625 27.9375c4.144531 0 7.5-3.359375 7.5-7.5v-12.4375c0-4.144531-3.355469-7.5-7.5-7.5s-7.5 3.355469-7.5 7.5v12.4375c0 4.140625 3.359375 7.5 7.5 7.5zm0 0"/><path d="m351.617188 31.90625c1.246093 2.785156 3.980468 4.4375 6.847656 4.4375 1.023437 0 2.066406-.210938 3.0625-.652344 3.777344-1.695312 5.472656-6.128906 3.78125-9.910156l-5.085938-11.355469c-1.691406-3.78125-6.128906-5.472656-9.910156-3.78125-3.777344 1.691407-5.472656 6.128907-3.777344 9.910157zm0 0"/><path d="m312.050781 49.640625 9.285157 8.300781c1.429687 1.277344 3.21875 1.910156 4.996093 1.910156 2.0625 0 4.113281-.84375 5.59375-2.5 2.761719-3.089843 2.496094-7.832031-.589843-10.59375l-9.285157-8.300781c-3.089843-2.761719-7.832031-2.496093-10.589843.59375-2.761719 3.085938-2.496094 7.828125.589843 10.589844zm0 0"/><path d="m292.449219 90.210938 11.871093 3.808593c.761719.242188 1.53125.359375 2.292969.359375 3.171875 0 6.117188-2.027344 7.136719-5.210937 1.265625-3.945313-.90625-8.167969-4.851562-9.433594l-11.871094-3.804687c-3.945313-1.265626-8.167969.90625-9.433594 4.851562-1.261719 3.945312.910156 8.167969 4.855469 9.429688zm0 0"/><path d="m290.304688 135.273438c.273437 0 .542968-.015626.820312-.046876l12.394531-1.347656c4.117188-.445312 7.09375-4.144531 6.644531-8.265625-.445312-4.117187-4.140624-7.097656-8.265624-6.644531l-12.394532 1.347656c-4.121094.445313-7.09375 4.148438-6.648437 8.265625.421875 3.84375 3.671875 6.691407 7.449219 6.691407zm0 0"/><path d="m300.769531 163.914062c-3.578125 2.082032-4.789062 6.675782-2.703125 10.253907 1.394532 2.390625 3.90625 3.726562 6.488282 3.726562 1.28125 0 2.578124-.328125 3.769531-1.019531l10.765625-6.273438c3.582031-2.085937 4.792968-6.675781 2.707031-10.253906-2.085937-3.582031-6.675781-4.792968-10.257813-2.707031zm0 0"/><path d="m433.285156 35.6875c.996094.445312 2.035156.65625 3.0625.65625 2.863282 0 5.601563-1.652344 6.847656-4.4375l5.085938-11.355469c1.691406-3.78125 0-8.21875-3.78125-9.910156-3.777344-1.691406-8.21875 0-9.910156 3.78125l-5.082032 11.355469c-1.695312 3.78125-.003906 8.21875 3.777344 9.910156zm0 0"/><path d="m468.480469 59.851562c1.777343 0 3.566406-.632812 4.996093-1.910156l9.285157-8.300781c3.085937-2.761719 3.351562-7.503906.589843-10.589844-2.761718-3.089843-7.503906-3.355469-10.589843-.59375l-9.285157 8.300781c-3.085937 2.761719-3.351562 7.503907-.589843 10.59375 1.480469 1.65625 3.535156 2.5 5.59375 2.5zm0 0"/><path d="m481.0625 89.167969c1.023438 3.183593 3.96875 5.210937 7.140625 5.210937.757813 0 1.53125-.117187 2.292969-.359375l11.871094-3.808593c3.941406-1.261719 6.113281-5.484376 4.851562-9.429688-1.265625-3.945312-5.492188-6.117188-9.433594-4.851562l-11.871094 3.804687c-3.945312 1.265625-6.117187 5.488281-4.851562 9.433594zm0 0"/><path d="m505.308594 120.316406-12.394532-1.347656c-4.125-.460938-7.820312 2.527344-8.269531 6.644531-.445312 4.121094 2.527344 7.820313 6.648438 8.269531l12.394531 1.347657c.277344.027343.550781.042969.820312.042969 3.777344 0 7.027344-2.847657 7.445313-6.6875.449219-4.121094-2.523437-7.820313-6.644531-8.269532zm0 0"/><path d="m494.039062 163.914062-10.765624-6.273437c-3.578126-2.082031-8.171876-.875-10.257813 2.703125-2.085937 3.582031-.875 8.171875 2.707031 10.257812l10.765625 6.273438c1.1875.691406 2.488281 1.019531 3.769531 1.019531 2.582032 0 5.09375-1.335937 6.488282-3.726562 2.082031-3.578125.871094-8.171875-2.707032-10.253907zm0 0"/><path d="m83.566406 173.425781h76.066406c4.140626 0 7.5-3.359375 7.5-7.5 0-4.144531-3.359374-7.5-7.5-7.5h-76.066406c-4.144531 0-7.5 3.355469-7.5 7.5 0 4.140625 3.359375 7.5 7.5 7.5zm0 0"/><path d="m48.523438 362.148438h146.148437c4.144531 0 7.5-3.355469 7.5-7.5 0-4.140626-3.355469-7.5-7.5-7.5h-146.148437c-4.140626 0-7.5 3.359374-7.5 7.5 0 4.144531 3.359374 7.5 7.5 7.5zm0 0"/><path d="m293.511719 282.160156c0-24.527344-19.941407-44.480468-44.449219-44.480468-24.511719 0-44.449219 19.953124-44.449219 44.480468s19.9375 44.480469 44.449219 44.480469c24.507812 0 44.449219-19.953125 44.449219-44.480469zm-44.453125-29.480468c15.722656 0 28.601562 12.394531 29.410156 27.933593-1.207031.148438-2.425781.242188-3.652344.242188-15.722656 0-28.605468-12.398438-29.40625-27.9375 1.195313-.152344 2.414063-.238281 3.648438-.238281zm-29.445313 29.480468c0-9.449218 4.472657-17.871094 11.402344-23.269531 3.578125 20.957031 21.851563 36.964844 43.800781 36.964844.105469 0 .210938-.007813.316406-.007813-4.9375 9.378906-14.765624 15.792969-26.074218 15.792969-16.234375 0-29.445313-13.226563-29.445313-29.480469zm0 0"/><path d="m430.566406 400.5625-37.972656-20.699219c-5.050781-2.753906-13.199219-4.828125-18.953125-4.828125h-130.441406v-23.820312c1.945312.09375 3.898437.15625 5.859375.15625 44.644531 0 86.203125-24.085938 108.464844-62.855469 2.25-3.917969 2.25-8.789063 0-12.714844-22.257813-38.765625-63.820313-62.847656-108.464844-62.847656-1.960938 0-3.914063.0625-5.859375.152344v-93.1875c0-6.890625-5.609375-12.5-12.5-12.5h-137.699219c-4.144531 0-7.5 3.359375-7.5 7.5 0 4.144531 3.355469 7.5 7.5 7.5h135.199219v92.304687c-5.371094.914063-10.648438 2.175782-15.8125 3.769532v-6.554688c0-6.894531-5.605469-12.5-12.5-12.5h-156.574219c-6.894531 0-12.5 5.605469-12.5 12.5v104.480469c0 6.890625 5.605469 12.5 12.5 12.5h134.398438c15.019531 10.4375 32.246093 17.574219 50.488281 20.683593v25.433594h-90.195313c-5.722656 0-10.726562 3.085938-13.464844 7.671875h-76.015624c-4.140626 0-7.5 3.359375-7.5 7.5 0 4.144531 3.359374 7.5 7.5 7.5h73.796874v20.5625h-73.796874c-4.140626 0-7.5 3.355469-7.5 7.5 0 4.140625 3.359374 7.5 7.5 7.5h73.914062c.914062 7.769531 7.542969 13.824219 15.566406 13.824219h90.195313v28.804688h-213.199219v-353.480469h42c4.144531 0 7.5-3.355469 7.5-7.5 0-4.140625-3.355469-7.5-7.5-7.5h-44.5c-6.894531 0-12.5 5.609375-12.5 12.5v358.476562c0 6.894531 5.605469 12.5 12.5 12.5h218.199219c6.890625 0 12.5-5.605469 12.5-12.5v-31.300781h130.441406c5.753906 0 13.902344-2.078125 18.953125-4.832031l37.976562-20.699219c4.363282-2.382812 6.867188-6.207031 6.867188-10.5 0-4.289062-2.503906-8.117188-6.871094-10.5zm-260.792968 31.53125h-31.769532c-.355468 0-.683594-.316406-.683594-.660156v-40.738282c0-.34375.324219-.660156.683594-.660156h31.769532zm-123.960938-118.175781v-99.480469h151.574219v9.753906c-23.480469 10.691406-43.550781 28.554688-56.785157 51.609375-2.253906 3.925781-2.253906 8.800781 0 12.71875 5.378907 9.371094 11.894532 17.875 19.304688 25.398438zm108.441406-31.757813c19.738282-33.472656 55.945313-54.207031 94.808594-54.207031 38.859375 0 75.066406 20.738281 94.808594 54.207031-19.746094 33.46875-55.953125 54.210938-94.808594 54.210938-38.859375 0-75.066406-20.734375-94.808594-54.210938zm208.589844 121.402344h-30.84375c-4.144531 0-7.5 3.359375-7.5 7.5 0 4.144531 3.355469 7.5 7.5 7.5h30.84375v13.53125h-178.070312v-13.53125h112.226562c4.140625 0 7.5-3.355469 7.5-7.5 0-4.140625-3.359375-7.5-7.5-7.5h-112.226562v-13.527344h178.070312zm31.109375 20.875-8.539063 4.65625c-1.808593.984375-4.804687 1.9375-7.570312 2.492188v-41.046876c2.769531.558594 5.761719 1.507813 7.570312 2.492188l8.539063 4.65625zm15-8.175781v-10.394531l9.535156 5.195312zm0 0"/></svg>